<svg width="160" height="160" viewBox="0 0 160 160" fill="none" xmlns="http://www.w3.org/2000/svg">
<g clip-path="url(#clip0_1_930)">
<path d="M160 0H0V160H160V0Z" fill="white"/>
<path d="M14.8275 10.0001H9.99988V14.8276H14.8275V10.0001Z" fill="black" fill-opacity="0.88"/>
<path d="M19.6551 10.0001H14.8275V14.8276H19.6551V10.0001Z" fill="black" fill-opacity="0.88"/>
<path d="M24.4826 10.0001H19.6551V14.8276H24.4826V10.0001Z" fill="black" fill-opacity="0.88"/>
<path d="M29.3102 10.0001H24.4826V14.8276H29.3102V10.0001Z" fill="black" fill-opacity="0.88"/>
<path d="M34.1378 10.0001H29.3102V14.8276H34.1378V10.0001Z" fill="black" fill-opacity="0.88"/>
<path d="M38.9654 10.0001H34.1378V14.8276H38.9654V10.0001Z" fill="black" fill-opacity="0.88"/>
<path d="M43.793 10.0001H38.9654V14.8276H43.793V10.0001Z" fill="black" fill-opacity="0.88"/>
<path d="M53.4482 10.0001H48.6206V14.8276H53.4482V10.0001Z" fill="black" fill-opacity="0.88"/>
<path d="M63.1033 10.0001H58.2757V14.8276H63.1033V10.0001Z" fill="black" fill-opacity="0.88"/>
<path d="M72.7585 10.0001H67.9309V14.8276H72.7585V10.0001Z" fill="black" fill-opacity="0.88"/>
<path d="M87.2413 10.0001H82.4137V14.8276H87.2413V10.0001Z" fill="black" fill-opacity="0.88"/>
<path d="M92.0688 10.0001H87.2413V14.8276H92.0688V10.0001Z" fill="black" fill-opacity="0.88"/>
<path d="M96.8964 10.0001H92.0688V14.8276H96.8964V10.0001Z" fill="black" fill-opacity="0.88"/>
<path d="M101.724 10.0001H96.8964V14.8276H101.724V10.0001Z" fill="black" fill-opacity="0.88"/>
<path d="M106.552 10.0001H101.724V14.8276H106.552V10.0001Z" fill="black" fill-opacity="0.88"/>
<path d="M111.379 10.0001H106.552V14.8276H111.379V10.0001Z" fill="black" fill-opacity="0.88"/>
<path d="M121.034 10.0001H116.207V14.8276H121.034V10.0001Z" fill="black" fill-opacity="0.88"/>
<path d="M125.862 10.0001H121.034V14.8276H125.862V10.0001Z" fill="black" fill-opacity="0.88"/>
<path d="M130.69 10.0001H125.862V14.8276H130.69V10.0001Z" fill="black" fill-opacity="0.88"/>
<path d="M135.517 10.0001H130.69V14.8276H135.517V10.0001Z" fill="black" fill-opacity="0.88"/>
<path d="M140.345 10.0001H135.517V14.8276H140.345V10.0001Z" fill="black" fill-opacity="0.88"/>
<path d="M145.172 10.0001H140.345V14.8276H145.172V10.0001Z" fill="black" fill-opacity="0.88"/>
<path d="M150 10.0001H145.172V14.8276H150V10.0001Z" fill="black" fill-opacity="0.88"/>
<path d="M14.8275 14.8276H9.99988V19.6552H14.8275V14.8276Z" fill="black" fill-opacity="0.88"/>
<path d="M43.793 14.8276H38.9654V19.6552H43.793V14.8276Z" fill="black" fill-opacity="0.88"/>
<path d="M58.2757 14.8276H53.4482V19.6552H58.2757V14.8276Z" fill="black" fill-opacity="0.88"/>
<path d="M67.9309 14.8276H63.1033V19.6552H67.9309V14.8276Z" fill="black" fill-opacity="0.88"/>
<path d="M72.7585 14.8276H67.9309V19.6552H72.7585V14.8276Z" fill="black" fill-opacity="0.88"/>
<path d="M82.4137 14.8276H77.5861V19.6552H82.4137V14.8276Z" fill="black" fill-opacity="0.88"/>
<path d="M96.8964 14.8276H92.0688V19.6552H96.8964V14.8276Z" fill="black" fill-opacity="0.88"/>
<path d="M101.724 14.8276H96.8964V19.6552H101.724V14.8276Z" fill="black" fill-opacity="0.88"/>
<path d="M106.552 14.8276H101.724V19.6552H106.552V14.8276Z" fill="black" fill-opacity="0.88"/>
<path d="M111.379 14.8276H106.552V19.6552H111.379V14.8276Z" fill="black" fill-opacity="0.88"/>
<path d="M121.034 14.8276H116.207V19.6552H121.034V14.8276Z" fill="black" fill-opacity="0.88"/>
<path d="M150 14.8276H145.172V19.6552H150V14.8276Z" fill="black" fill-opacity="0.88"/>
<path d="M14.8275 19.6552H9.99988V24.4828H14.8275V19.6552Z" fill="black" fill-opacity="0.88"/>
<path d="M24.4826 19.6552H19.6551V24.4828H24.4826V19.6552Z" fill="black" fill-opacity="0.88"/>
<path d="M29.3102 19.6552H24.4826V24.4828H29.3102V19.6552Z" fill="black" fill-opacity="0.88"/>
<path d="M34.1378 19.6552H29.3102V24.4828H34.1378V19.6552Z" fill="black" fill-opacity="0.88"/>
<path d="M43.793 19.6552H38.9654V24.4828H43.793V19.6552Z" fill="black" fill-opacity="0.88"/>
<path d="M58.2757 19.6552H53.4482V24.4828H58.2757V19.6552Z" fill="black" fill-opacity="0.88"/>
<path d="M72.7585 19.6552H67.9309V24.4828H72.7585V19.6552Z" fill="black" fill-opacity="0.88"/>
<path d="M77.5861 19.6552H72.7585V24.4828H77.5861V19.6552Z" fill="black" fill-opacity="0.88"/>
<path d="M87.2413 19.6552H82.4137V24.4828H87.2413V19.6552Z" fill="black" fill-opacity="0.88"/>
<path d="M92.0688 19.6552H87.2413V24.4828H92.0688V19.6552Z" fill="black" fill-opacity="0.88"/>
<path d="M101.724 19.6552H96.8964V24.4828H101.724V19.6552Z" fill="black" fill-opacity="0.88"/>
<path d="M111.379 19.6552H106.552V24.4828H111.379V19.6552Z" fill="black" fill-opacity="0.88"/>
<path d="M121.034 19.6552H116.207V24.4828H121.034V19.6552Z" fill="black" fill-opacity="0.88"/>
<path d="M130.69 19.6552H125.862V24.4828H130.69V19.6552Z" fill="black" fill-opacity="0.88"/>
<path d="M135.517 19.6552H130.69V24.4828H135.517V19.6552Z" fill="black" fill-opacity="0.88"/>
<path d="M140.345 19.6552H135.517V24.4828H140.345V19.6552Z" fill="black" fill-opacity="0.88"/>
<path d="M150 19.6552H145.172V24.4828H150V19.6552Z" fill="black" fill-opacity="0.88"/>
<path d="M14.8275 24.4828H9.99988V29.3104H14.8275V24.4828Z" fill="black" fill-opacity="0.88"/>
<path d="M24.4826 24.4828H19.6551V29.3104H24.4826V24.4828Z" fill="black" fill-opacity="0.88"/>
<path d="M29.3102 24.4828H24.4826V29.3104H29.3102V24.4828Z" fill="black" fill-opacity="0.88"/>
<path d="M34.1378 24.4828H29.3102V29.3104H34.1378V24.4828Z" fill="black" fill-opacity="0.88"/>
<path d="M43.793 24.4828H38.9654V29.3104H43.793V24.4828Z" fill="black" fill-opacity="0.88"/>
<path d="M53.4482 24.4828H48.6206V29.3104H53.4482V24.4828Z" fill="black" fill-opacity="0.88"/>
<path d="M58.2757 24.4828H53.4482V29.3104H58.2757V24.4828Z" fill="black" fill-opacity="0.88"/>
<path d="M67.9309 24.4828H63.1033V29.3104H67.9309V24.4828Z" fill="black" fill-opacity="0.88"/>
<path d="M72.7585 24.4828H67.9309V29.3104H72.7585V24.4828Z" fill="black" fill-opacity="0.88"/>
<path d="M77.5861 24.4828H72.7585V29.3104H77.5861V24.4828Z" fill="black" fill-opacity="0.88"/>
<path d="M92.0688 24.4828H87.2413V29.3104H92.0688V24.4828Z" fill="black" fill-opacity="0.88"/>
<path d="M96.8964 24.4828H92.0688V29.3104H96.8964V24.4828Z" fill="black" fill-opacity="0.88"/>
<path d="M101.724 24.4828H96.8964V29.3104H101.724V24.4828Z" fill="black" fill-opacity="0.88"/>
<path d="M106.552 24.4828H101.724V29.3104H106.552V24.4828Z" fill="black" fill-opacity="0.88"/>
<path d="M121.034 24.4828H116.207V29.3104H121.034V24.4828Z" fill="black" fill-opacity="0.88"/>
<path d="M130.69 24.4828H125.862V29.3104H130.69V24.4828Z" fill="black" fill-opacity="0.88"/>
<path d="M135.517 24.4828H130.69V29.3104H135.517V24.4828Z" fill="black" fill-opacity="0.88"/>
<path d="M140.345 24.4828H135.517V29.3104H140.345V24.4828Z" fill="black" fill-opacity="0.88"/>
<path d="M150 24.4828H145.172V29.3104H150V24.4828Z" fill="black" fill-opacity="0.88"/>
<path d="M14.8275 29.3104H9.99988V34.138H14.8275V29.3104Z" fill="black" fill-opacity="0.88"/>
<path d="M24.4826 29.3104H19.6551V34.138H24.4826V29.3104Z" fill="black" fill-opacity="0.88"/>
<path d="M29.3102 29.3104H24.4826V34.138H29.3102V29.3104Z" fill="black" fill-opacity="0.88"/>
<path d="M34.1378 29.3104H29.3102V34.138H34.1378V29.3104Z" fill="black" fill-opacity="0.88"/>
<path d="M43.793 29.3104H38.9654V34.138H43.793V29.3104Z" fill="black" fill-opacity="0.88"/>
<path d="M53.4482 29.3104H48.6206V34.138H53.4482V29.3104Z" fill="black" fill-opacity="0.88"/>
<path d="M58.2757 29.3104H53.4482V34.138H58.2757V29.3104Z" fill="black" fill-opacity="0.88"/>
<path d="M63.1033 29.3104H58.2757V34.138H63.1033V29.3104Z" fill="black" fill-opacity="0.88"/>
<path d="M72.7585 29.3104H67.9309V34.138H72.7585V29.3104Z" fill="black" fill-opacity="0.88"/>
<path d="M87.2413 29.3104H82.4137V34.138H87.2413V29.3104Z" fill="black" fill-opacity="0.88"/>
<path d="M96.8964 29.3104H92.0688V34.138H96.8964V29.3104Z" fill="black" fill-opacity="0.88"/>
<path d="M101.724 29.3104H96.8964V34.138H101.724V29.3104Z" fill="black" fill-opacity="0.88"/>
<path d="M111.379 29.3104H106.552V34.138H111.379V29.3104Z" fill="black" fill-opacity="0.88"/>
<path d="M121.034 29.3104H116.207V34.138H121.034V29.3104Z" fill="black" fill-opacity="0.88"/>
<path d="M130.69 29.3104H125.862V34.138H130.69V29.3104Z" fill="black" fill-opacity="0.88"/>
<path d="M135.517 29.3104H130.69V34.138H135.517V29.3104Z" fill="black" fill-opacity="0.88"/>
<path d="M140.345 29.3104H135.517V34.138H140.345V29.3104Z" fill="black" fill-opacity="0.88"/>
<path d="M150 29.3104H145.172V34.138H150V29.3104Z" fill="black" fill-opacity="0.88"/>
<path d="M14.8275 34.138H9.99988V38.9656H14.8275V34.138Z" fill="black" fill-opacity="0.88"/>
<path d="M43.793 34.138H38.9654V38.9656H43.793V34.138Z" fill="black" fill-opacity="0.88"/>
<path d="M53.4482 34.138H48.6206V38.9656H53.4482V34.138Z" fill="black" fill-opacity="0.88"/>
<path d="M63.1033 34.138H58.2757V38.9656H63.1033V34.138Z" fill="black" fill-opacity="0.88"/>
<path d="M67.9309 34.138H63.1033V38.9656H67.9309V34.138Z" fill="black" fill-opacity="0.88"/>
<path d="M87.2413 34.138H82.4137V38.9656H87.2413V34.138Z" fill="black" fill-opacity="0.88"/>
<path d="M92.0688 34.138H87.2413V38.9656H92.0688V34.138Z" fill="black" fill-opacity="0.88"/>
<path d="M106.552 34.138H101.724V38.9656H106.552V34.138Z" fill="black" fill-opacity="0.88"/>
<path d="M121.034 34.138H116.207V38.9656H121.034V34.138Z" fill="black" fill-opacity="0.88"/>
<path d="M150 34.138H145.172V38.9656H150V34.138Z" fill="black" fill-opacity="0.88"/>
<path d="M14.8275 38.9656H9.99988V43.7932H14.8275V38.9656Z" fill="black" fill-opacity="0.88"/>
<path d="M19.6551 38.9656H14.8275V43.7932H19.6551V38.9656Z" fill="black" fill-opacity="0.88"/>
<path d="M24.4826 38.9656H19.6551V43.7932H24.4826V38.9656Z" fill="black" fill-opacity="0.88"/>
<path d="M29.3102 38.9656H24.4826V43.7932H29.3102V38.9656Z" fill="black" fill-opacity="0.88"/>
<path d="M34.1378 38.9656H29.3102V43.7932H34.1378V38.9656Z" fill="black" fill-opacity="0.88"/>
<path d="M38.9654 38.9656H34.1378V43.7932H38.9654V38.9656Z" fill="black" fill-opacity="0.88"/>
<path d="M43.793 38.9656H38.9654V43.7932H43.793V38.9656Z" fill="black" fill-opacity="0.88"/>
<path d="M53.4482 38.9656H48.6206V43.7932H53.4482V38.9656Z" fill="black" fill-opacity="0.88"/>
<path d="M63.1033 38.9656H58.2757V43.7932H63.1033V38.9656Z" fill="black" fill-opacity="0.88"/>
<path d="M72.7585 38.9656H67.9309V43.7932H72.7585V38.9656Z" fill="black" fill-opacity="0.88"/>
<path d="M82.4137 38.9656H77.5861V43.7932H82.4137V38.9656Z" fill="black" fill-opacity="0.88"/>
<path d="M92.0688 38.9656H87.2413V43.7932H92.0688V38.9656Z" fill="black" fill-opacity="0.88"/>
<path d="M101.724 38.9656H96.8964V43.7932H101.724V38.9656Z" fill="black" fill-opacity="0.88"/>
<path d="M111.379 38.9656H106.552V43.7932H111.379V38.9656Z" fill="black" fill-opacity="0.88"/>
<path d="M121.034 38.9656H116.207V43.7932H121.034V38.9656Z" fill="black" fill-opacity="0.88"/>
<path d="M125.862 38.9656H121.034V43.7932H125.862V38.9656Z" fill="black" fill-opacity="0.88"/>
<path d="M130.69 38.9656H125.862V43.7932H130.69V38.9656Z" fill="black" fill-opacity="0.88"/>
<path d="M135.517 38.9656H130.69V43.7932H135.517V38.9656Z" fill="black" fill-opacity="0.88"/>
<path d="M140.345 38.9656H135.517V43.7932H140.345V38.9656Z" fill="black" fill-opacity="0.88"/>
<path d="M145.172 38.9656H140.345V43.7932H145.172V38.9656Z" fill="black" fill-opacity="0.88"/>
<path d="M150 38.9656H145.172V43.7932H150V38.9656Z" fill="black" fill-opacity="0.88"/>
<path d="M53.4482 43.7932H48.6206V48.6208H53.4482V43.7932Z" fill="black" fill-opacity="0.88"/>
<path d="M58.2757 43.7932H53.4482V48.6208H58.2757V43.7932Z" fill="black" fill-opacity="0.88"/>
<path d="M77.5861 43.7932H72.7585V48.6208H77.5861V43.7932Z" fill="black" fill-opacity="0.88"/>
<path d="M106.552 43.7932H101.724V48.6208H106.552V43.7932Z" fill="black" fill-opacity="0.88"/>
<path d="M14.8275 48.6208H9.99988V53.4483H14.8275V48.6208Z" fill="black" fill-opacity="0.88"/>
<path d="M19.6551 48.6208H14.8275V53.4483H19.6551V48.6208Z" fill="black" fill-opacity="0.88"/>
<path d="M24.4826 48.6208H19.6551V53.4483H24.4826V48.6208Z" fill="black" fill-opacity="0.88"/>
<path d="M34.1378 48.6208H29.3102V53.4483H34.1378V48.6208Z" fill="black" fill-opacity="0.88"/>
<path d="M43.793 48.6208H38.9654V53.4483H43.793V48.6208Z" fill="black" fill-opacity="0.88"/>
<path d="M53.4482 48.6208H48.6206V53.4483H53.4482V48.6208Z" fill="black" fill-opacity="0.88"/>
<path d="M72.7585 48.6208H67.9309V53.4483H72.7585V48.6208Z" fill="black" fill-opacity="0.88"/>
<path d="M101.724 48.6208H96.8964V53.4483H101.724V48.6208Z" fill="black" fill-opacity="0.88"/>
<path d="M116.207 48.6208H111.379V53.4483H116.207V48.6208Z" fill="black" fill-opacity="0.88"/>
<path d="M121.034 48.6208H116.207V53.4483H121.034V48.6208Z" fill="black" fill-opacity="0.88"/>
<path d="M125.862 48.6208H121.034V53.4483H125.862V48.6208Z" fill="black" fill-opacity="0.88"/>
<path d="M130.69 48.6208H125.862V53.4483H130.69V48.6208Z" fill="black" fill-opacity="0.88"/>
<path d="M135.517 48.6208H130.69V53.4483H135.517V48.6208Z" fill="black" fill-opacity="0.88"/>
<path d="M150 48.6208H145.172V53.4483H150V48.6208Z" fill="black" fill-opacity="0.88"/>
<path d="M19.6551 53.4483H14.8275V58.2759H19.6551V53.4483Z" fill="black" fill-opacity="0.88"/>
<path d="M29.3102 53.4483H24.4826V58.2759H29.3102V53.4483Z" fill="black" fill-opacity="0.88"/>
<path d="M48.6206 53.4483H43.793V58.2759H48.6206V53.4483Z" fill="black" fill-opacity="0.88"/>
<path d="M53.4482 53.4483H48.6206V58.2759H53.4482V53.4483Z" fill="black" fill-opacity="0.88"/>
<path d="M72.7585 53.4483H67.9309V58.2759H72.7585V53.4483Z" fill="black" fill-opacity="0.88"/>
<path d="M77.5861 53.4483H72.7585V58.2759H77.5861V53.4483Z" fill="black" fill-opacity="0.88"/>
<path d="M92.0688 53.4483H87.2413V58.2759H92.0688V53.4483Z" fill="black" fill-opacity="0.88"/>
<path d="M96.8964 53.4483H92.0688V58.2759H96.8964V53.4483Z" fill="black" fill-opacity="0.88"/>
<path d="M111.379 53.4483H106.552V58.2759H111.379V53.4483Z" fill="black" fill-opacity="0.88"/>
<path d="M145.172 53.4483H140.345V58.2759H145.172V53.4483Z" fill="black" fill-opacity="0.88"/>
<path d="M150 53.4483H145.172V58.2759H150V53.4483Z" fill="black" fill-opacity="0.88"/>
<path d="M34.1378 58.2759H29.3102V63.1035H34.1378V58.2759Z" fill="black" fill-opacity="0.88"/>
<path d="M38.9654 58.2759H34.1378V63.1035H38.9654V58.2759Z" fill="black" fill-opacity="0.88"/>
<path d="M43.793 58.2759H38.9654V63.1035H43.793V58.2759Z" fill="black" fill-opacity="0.88"/>
<path d="M48.6206 58.2759H43.793V63.1035H48.6206V58.2759Z" fill="black" fill-opacity="0.88"/>
<path d="M53.4482 58.2759H48.6206V63.1035H53.4482V58.2759Z" fill="black" fill-opacity="0.88"/>
<path d="M67.9309 58.2759H63.1033V63.1035H67.9309V58.2759Z" fill="black" fill-opacity="0.88"/>
<path d="M72.7585 58.2759H67.9309V63.1035H72.7585V58.2759Z" fill="black" fill-opacity="0.88"/>
<path d="M77.5861 58.2759H72.7585V63.1035H77.5861V58.2759Z" fill="black" fill-opacity="0.88"/>
<path d="M82.4137 58.2759H77.5861V63.1035H82.4137V58.2759Z" fill="black" fill-opacity="0.88"/>
<path d="M92.0688 58.2759H87.2413V63.1035H92.0688V58.2759Z" fill="black" fill-opacity="0.88"/>
<path d="M106.552 58.2759H101.724V63.1035H106.552V58.2759Z" fill="black" fill-opacity="0.88"/>
<path d="M121.034 58.2759H116.207V63.1035H121.034V58.2759Z" fill="black" fill-opacity="0.88"/>
<path d="M130.69 58.2759H125.862V63.1035H130.69V58.2759Z" fill="black" fill-opacity="0.88"/>
<path d="M140.345 58.2759H135.517V63.1035H140.345V58.2759Z" fill="black" fill-opacity="0.88"/>
<path d="M150 58.2759H145.172V63.1035H150V58.2759Z" fill="black" fill-opacity="0.88"/>
<path d="M14.8275 63.1035H9.99988V67.9311H14.8275V63.1035Z" fill="black" fill-opacity="0.88"/>
<path d="M19.6551 63.1035H14.8275V67.9311H19.6551V63.1035Z" fill="black" fill-opacity="0.88"/>
<path d="M24.4826 63.1035H19.6551V67.9311H24.4826V63.1035Z" fill="black" fill-opacity="0.88"/>
<path d="M29.3102 63.1035H24.4826V67.9311H29.3102V63.1035Z" fill="black" fill-opacity="0.88"/>
<path d="M38.9654 63.1035H34.1378V67.9311H38.9654V63.1035Z" fill="black" fill-opacity="0.88"/>
<path d="M63.1033 63.1035H58.2757V67.9311H63.1033V63.1035Z" fill="black" fill-opacity="0.88"/>
<path d="M67.9309 63.1035H63.1033V67.9311H67.9309V63.1035Z" fill="black" fill-opacity="0.88"/>
<path d="M72.7585 63.1035H67.9309V67.9311H72.7585V63.1035Z" fill="black" fill-opacity="0.88"/>
<path d="M77.5861 63.1035H72.7585V67.9311H77.5861V63.1035Z" fill="black" fill-opacity="0.88"/>
<path d="M87.2413 63.1035H82.4137V67.9311H87.2413V63.1035Z" fill="black" fill-opacity="0.88"/>
<path d="M101.724 63.1035H96.8964V67.9311H101.724V63.1035Z" fill="black" fill-opacity="0.88"/>
<path d="M121.034 63.1035H116.207V67.9311H121.034V63.1035Z" fill="black" fill-opacity="0.88"/>
<path d="M125.862 63.1035H121.034V67.9311H125.862V63.1035Z" fill="black" fill-opacity="0.88"/>
<path d="M130.69 63.1035H125.862V67.9311H130.69V63.1035Z" fill="black" fill-opacity="0.88"/>
<path d="M145.172 63.1035H140.345V67.9311H145.172V63.1035Z" fill="black" fill-opacity="0.88"/>
<path d="M24.4826 67.9311H19.6551V72.7587H24.4826V67.9311Z" fill="black" fill-opacity="0.88"/>
<path d="M29.3102 67.9311H24.4826V72.7587H29.3102V67.9311Z" fill="black" fill-opacity="0.88"/>
<path d="M34.1378 67.9311H29.3102V72.7587H34.1378V67.9311Z" fill="black" fill-opacity="0.88"/>
<path d="M38.9654 67.9311H34.1378V72.7587H38.9654V67.9311Z" fill="black" fill-opacity="0.88"/>
<path d="M43.793 67.9311H38.9654V72.7587H43.793V67.9311Z" fill="black" fill-opacity="0.88"/>
<path d="M53.4482 67.9311H48.6206V72.7587H53.4482V67.9311Z" fill="black" fill-opacity="0.88"/>
<path d="M63.1033 67.9311H58.2757V72.7587H63.1033V67.9311Z" fill="black" fill-opacity="0.88"/>
<path d="M67.9309 67.9311H63.1033V72.7587H67.9309V67.9311Z" fill="black" fill-opacity="0.88"/>
<path d="M72.7585 67.9311H67.9309V72.7587H72.7585V67.9311Z" fill="black" fill-opacity="0.88"/>
<path d="M77.5861 67.9311H72.7585V72.7587H77.5861V67.9311Z" fill="black" fill-opacity="0.88"/>
<path d="M82.4137 67.9311H77.5861V72.7587H82.4137V67.9311Z" fill="black" fill-opacity="0.88"/>
<path d="M87.2413 67.9311H82.4137V72.7587H87.2413V67.9311Z" fill="black" fill-opacity="0.88"/>
<path d="M96.8964 67.9311H92.0688V72.7587H96.8964V67.9311Z" fill="black" fill-opacity="0.88"/>
<path d="M106.552 67.9311H101.724V72.7587H106.552V67.9311Z" fill="black" fill-opacity="0.88"/>
<path d="M111.379 67.9311H106.552V72.7587H111.379V67.9311Z" fill="black" fill-opacity="0.88"/>
<path d="M125.862 67.9311H121.034V72.7587H125.862V67.9311Z" fill="black" fill-opacity="0.88"/>
<path d="M130.69 67.9311H125.862V72.7587H130.69V67.9311Z" fill="black" fill-opacity="0.88"/>
<path d="M48.6206 72.7587H43.793V77.5863H48.6206V72.7587Z" fill="black" fill-opacity="0.88"/>
<path d="M53.4482 72.7587H48.6206V77.5863H53.4482V72.7587Z" fill="black" fill-opacity="0.88"/>
<path d="M58.2757 72.7587H53.4482V77.5863H58.2757V72.7587Z" fill="black" fill-opacity="0.88"/>
<path d="M63.1033 72.7587H58.2757V77.5863H63.1033V72.7587Z" fill="black" fill-opacity="0.88"/>
<path d="M67.9309 72.7587H63.1033V77.5863H67.9309V72.7587Z" fill="black" fill-opacity="0.88"/>
<path d="M72.7585 72.7587H67.9309V77.5863H72.7585V72.7587Z" fill="black" fill-opacity="0.88"/>
<path d="M77.5861 72.7587H72.7585V77.5863H77.5861V72.7587Z" fill="black" fill-opacity="0.88"/>
<path d="M82.4137 72.7587H77.5861V77.5863H82.4137V72.7587Z" fill="black" fill-opacity="0.88"/>
<path d="M96.8964 72.7587H92.0688V77.5863H96.8964V72.7587Z" fill="black" fill-opacity="0.88"/>
<path d="M111.379 72.7587H106.552V77.5863H111.379V72.7587Z" fill="black" fill-opacity="0.88"/>
<path d="M130.69 72.7587H125.862V77.5863H130.69V72.7587Z" fill="black" fill-opacity="0.88"/>
<path d="M140.345 72.7587H135.517V77.5863H140.345V72.7587Z" fill="black" fill-opacity="0.88"/>
<path d="M145.172 72.7587H140.345V77.5863H145.172V72.7587Z" fill="black" fill-opacity="0.88"/>
<path d="M34.1378 77.5863H29.3102V82.4139H34.1378V77.5863Z" fill="black" fill-opacity="0.88"/>
<path d="M43.793 77.5863H38.9654V82.4139H43.793V77.5863Z" fill="black" fill-opacity="0.88"/>
<path d="M77.5861 77.5863H72.7585V82.4139H77.5861V77.5863Z" fill="black" fill-opacity="0.88"/>
<path d="M92.0688 77.5863H87.2413V82.4139H92.0688V77.5863Z" fill="black" fill-opacity="0.88"/>
<path d="M96.8964 77.5863H92.0688V82.4139H96.8964V77.5863Z" fill="black" fill-opacity="0.88"/>
<path d="M106.552 77.5863H101.724V82.4139H106.552V77.5863Z" fill="black" fill-opacity="0.88"/>
<path d="M111.379 77.5863H106.552V82.4139H111.379V77.5863Z" fill="black" fill-opacity="0.88"/>
<path d="M116.207 77.5863H111.379V82.4139H116.207V77.5863Z" fill="black" fill-opacity="0.88"/>
<path d="M121.034 77.5863H116.207V82.4139H121.034V77.5863Z" fill="black" fill-opacity="0.88"/>
<path d="M125.862 77.5863H121.034V82.4139H125.862V77.5863Z" fill="black" fill-opacity="0.88"/>
<path d="M130.69 77.5863H125.862V82.4139H130.69V77.5863Z" fill="black" fill-opacity="0.88"/>
<path d="M140.345 77.5863H135.517V82.4139H140.345V77.5863Z" fill="black" fill-opacity="0.88"/>
<path d="M14.8275 82.4139H9.99988V87.2414H14.8275V82.4139Z" fill="black" fill-opacity="0.88"/>
<path d="M24.4826 82.4139H19.6551V87.2414H24.4826V82.4139Z" fill="black" fill-opacity="0.88"/>
<path d="M34.1378 82.4139H29.3102V87.2414H34.1378V82.4139Z" fill="black" fill-opacity="0.88"/>
<path d="M38.9654 82.4139H34.1378V87.2414H38.9654V82.4139Z" fill="black" fill-opacity="0.88"/>
<path d="M48.6206 82.4139H43.793V87.2414H48.6206V82.4139Z" fill="black" fill-opacity="0.88"/>
<path d="M63.1033 82.4139H58.2757V87.2414H63.1033V82.4139Z" fill="black" fill-opacity="0.88"/>
<path d="M72.7585 82.4139H67.9309V87.2414H72.7585V82.4139Z" fill="black" fill-opacity="0.88"/>
<path d="M87.2413 82.4139H82.4137V87.2414H87.2413V82.4139Z" fill="black" fill-opacity="0.88"/>
<path d="M101.724 82.4139H96.8964V87.2414H101.724V82.4139Z" fill="black" fill-opacity="0.88"/>
<path d="M111.379 82.4139H106.552V87.2414H111.379V82.4139Z" fill="black" fill-opacity="0.88"/>
<path d="M125.862 82.4139H121.034V87.2414H125.862V82.4139Z" fill="black" fill-opacity="0.88"/>
<path d="M140.345 82.4139H135.517V87.2414H140.345V82.4139Z" fill="black" fill-opacity="0.88"/>
<path d="M145.172 82.4139H140.345V87.2414H145.172V82.4139Z" fill="black" fill-opacity="0.88"/>
<path d="M14.8275 87.2414H9.99988V92.069H14.8275V87.2414Z" fill="black" fill-opacity="0.88"/>
<path d="M19.6551 87.2414H14.8275V92.069H19.6551V87.2414Z" fill="black" fill-opacity="0.88"/>
<path d="M24.4826 87.2414H19.6551V92.069H24.4826V87.2414Z" fill="black" fill-opacity="0.88"/>
<path d="M29.3102 87.2414H24.4826V92.069H29.3102V87.2414Z" fill="black" fill-opacity="0.88"/>
<path d="M34.1378 87.2414H29.3102V92.069H34.1378V87.2414Z" fill="black" fill-opacity="0.88"/>
<path d="M38.9654 87.2414H34.1378V92.069H38.9654V87.2414Z" fill="black" fill-opacity="0.88"/>
<path d="M43.793 87.2414H38.9654V92.069H43.793V87.2414Z" fill="black" fill-opacity="0.88"/>
<path d="M48.6206 87.2414H43.793V92.069H48.6206V87.2414Z" fill="black" fill-opacity="0.88"/>
<path d="M58.2757 87.2414H53.4482V92.069H58.2757V87.2414Z" fill="black" fill-opacity="0.88"/>
<path d="M63.1033 87.2414H58.2757V92.069H63.1033V87.2414Z" fill="black" fill-opacity="0.88"/>
<path d="M67.9309 87.2414H63.1033V92.069H67.9309V87.2414Z" fill="black" fill-opacity="0.88"/>
<path d="M72.7585 87.2414H67.9309V92.069H72.7585V87.2414Z" fill="black" fill-opacity="0.88"/>
<path d="M77.5861 87.2414H72.7585V92.069H77.5861V87.2414Z" fill="black" fill-opacity="0.88"/>
<path d="M82.4137 87.2414H77.5861V92.069H82.4137V87.2414Z" fill="black" fill-opacity="0.88"/>
<path d="M92.0688 87.2414H87.2413V92.069H92.0688V87.2414Z" fill="black" fill-opacity="0.88"/>
<path d="M96.8964 87.2414H92.0688V92.069H96.8964V87.2414Z" fill="black" fill-opacity="0.88"/>
<path d="M111.379 87.2414H106.552V92.069H111.379V87.2414Z" fill="black" fill-opacity="0.88"/>
<path d="M130.69 87.2414H125.862V92.069H130.69V87.2414Z" fill="black" fill-opacity="0.88"/>
<path d="M19.6551 92.069H14.8275V96.8966H19.6551V92.069Z" fill="black" fill-opacity="0.88"/>
<path d="M29.3102 92.069H24.4826V96.8966H29.3102V92.069Z" fill="black" fill-opacity="0.88"/>
<path d="M34.1378 92.069H29.3102V96.8966H34.1378V92.069Z" fill="black" fill-opacity="0.88"/>
<path d="M53.4482 92.069H48.6206V96.8966H53.4482V92.069Z" fill="black" fill-opacity="0.88"/>
<path d="M58.2757 92.069H53.4482V96.8966H58.2757V92.069Z" fill="black" fill-opacity="0.88"/>
<path d="M67.9309 92.069H63.1033V96.8966H67.9309V92.069Z" fill="black" fill-opacity="0.88"/>
<path d="M77.5861 92.069H72.7585V96.8966H77.5861V92.069Z" fill="black" fill-opacity="0.88"/>
<path d="M111.379 92.069H106.552V96.8966H111.379V92.069Z" fill="black" fill-opacity="0.88"/>
<path d="M125.862 92.069H121.034V96.8966H125.862V92.069Z" fill="black" fill-opacity="0.88"/>
<path d="M140.345 92.069H135.517V96.8966H140.345V92.069Z" fill="black" fill-opacity="0.88"/>
<path d="M14.8275 96.8966H9.99988V101.724H14.8275V96.8966Z" fill="black" fill-opacity="0.88"/>
<path d="M24.4826 96.8966H19.6551V101.724H24.4826V96.8966Z" fill="black" fill-opacity="0.88"/>
<path d="M34.1378 96.8966H29.3102V101.724H34.1378V96.8966Z" fill="black" fill-opacity="0.88"/>
<path d="M38.9654 96.8966H34.1378V101.724H38.9654V96.8966Z" fill="black" fill-opacity="0.88"/>
<path d="M43.793 96.8966H38.9654V101.724H43.793V96.8966Z" fill="black" fill-opacity="0.88"/>
<path d="M58.2757 96.8966H53.4482V101.724H58.2757V96.8966Z" fill="black" fill-opacity="0.88"/>
<path d="M77.5861 96.8966H72.7585V101.724H77.5861V96.8966Z" fill="black" fill-opacity="0.88"/>
<path d="M92.0688 96.8966H87.2413V101.724H92.0688V96.8966Z" fill="black" fill-opacity="0.88"/>
<path d="M96.8964 96.8966H92.0688V101.724H96.8964V96.8966Z" fill="black" fill-opacity="0.88"/>
<path d="M106.552 96.8966H101.724V101.724H106.552V96.8966Z" fill="black" fill-opacity="0.88"/>
<path d="M116.207 96.8966H111.379V101.724H116.207V96.8966Z" fill="black" fill-opacity="0.88"/>
<path d="M121.034 96.8966H116.207V101.724H121.034V96.8966Z" fill="black" fill-opacity="0.88"/>
<path d="M125.862 96.8966H121.034V101.724H125.862V96.8966Z" fill="black" fill-opacity="0.88"/>
<path d="M140.345 96.8966H135.517V101.724H140.345V96.8966Z" fill="black" fill-opacity="0.88"/>
<path d="M145.172 96.8966H140.345V101.724H145.172V96.8966Z" fill="black" fill-opacity="0.88"/>
<path d="M150 96.8966H145.172V101.724H150V96.8966Z" fill="black" fill-opacity="0.88"/>
<path d="M19.6551 101.724H14.8275V106.552H19.6551V101.724Z" fill="black" fill-opacity="0.88"/>
<path d="M24.4826 101.724H19.6551V106.552H24.4826V101.724Z" fill="black" fill-opacity="0.88"/>
<path d="M34.1378 101.724H29.3102V106.552H34.1378V101.724Z" fill="black" fill-opacity="0.88"/>
<path d="M48.6206 101.724H43.793V106.552H48.6206V101.724Z" fill="black" fill-opacity="0.88"/>
<path d="M53.4482 101.724H48.6206V106.552H53.4482V101.724Z" fill="black" fill-opacity="0.88"/>
<path d="M58.2757 101.724H53.4482V106.552H58.2757V101.724Z" fill="black" fill-opacity="0.88"/>
<path d="M72.7585 101.724H67.9309V106.552H72.7585V101.724Z" fill="black" fill-opacity="0.88"/>
<path d="M82.4137 101.724H77.5861V106.552H82.4137V101.724Z" fill="black" fill-opacity="0.88"/>
<path d="M87.2413 101.724H82.4137V106.552H87.2413V101.724Z" fill="black" fill-opacity="0.88"/>
<path d="M96.8964 101.724H92.0688V106.552H96.8964V101.724Z" fill="black" fill-opacity="0.88"/>
<path d="M101.724 101.724H96.8964V106.552H101.724V101.724Z" fill="black" fill-opacity="0.88"/>
<path d="M106.552 101.724H101.724V106.552H106.552V101.724Z" fill="black" fill-opacity="0.88"/>
<path d="M111.379 101.724H106.552V106.552H111.379V101.724Z" fill="black" fill-opacity="0.88"/>
<path d="M116.207 101.724H111.379V106.552H116.207V101.724Z" fill="black" fill-opacity="0.88"/>
<path d="M121.034 101.724H116.207V106.552H121.034V101.724Z" fill="black" fill-opacity="0.88"/>
<path d="M125.862 101.724H121.034V106.552H125.862V101.724Z" fill="black" fill-opacity="0.88"/>
<path d="M130.69 101.724H125.862V106.552H130.69V101.724Z" fill="black" fill-opacity="0.88"/>
<path d="M150 101.724H145.172V106.552H150V101.724Z" fill="black" fill-opacity="0.88"/>
<path d="M14.8275 106.552H9.99988V111.379H14.8275V106.552Z" fill="black" fill-opacity="0.88"/>
<path d="M19.6551 106.552H14.8275V111.379H19.6551V106.552Z" fill="black" fill-opacity="0.88"/>
<path d="M24.4826 106.552H19.6551V111.379H24.4826V106.552Z" fill="black" fill-opacity="0.88"/>
<path d="M38.9654 106.552H34.1378V111.379H38.9654V106.552Z" fill="black" fill-opacity="0.88"/>
<path d="M43.793 106.552H38.9654V111.379H43.793V106.552Z" fill="black" fill-opacity="0.88"/>
<path d="M48.6206 106.552H43.793V111.379H48.6206V106.552Z" fill="black" fill-opacity="0.88"/>
<path d="M67.9309 106.552H63.1033V111.379H67.9309V106.552Z" fill="black" fill-opacity="0.88"/>
<path d="M72.7585 106.552H67.9309V111.379H72.7585V106.552Z" fill="black" fill-opacity="0.88"/>
<path d="M82.4137 106.552H77.5861V111.379H82.4137V106.552Z" fill="black" fill-opacity="0.88"/>
<path d="M87.2413 106.552H82.4137V111.379H87.2413V106.552Z" fill="black" fill-opacity="0.88"/>
<path d="M96.8964 106.552H92.0688V111.379H96.8964V106.552Z" fill="black" fill-opacity="0.88"/>
<path d="M101.724 106.552H96.8964V111.379H101.724V106.552Z" fill="black" fill-opacity="0.88"/>
<path d="M111.379 106.552H106.552V111.379H111.379V106.552Z" fill="black" fill-opacity="0.88"/>
<path d="M116.207 106.552H111.379V111.379H116.207V106.552Z" fill="black" fill-opacity="0.88"/>
<path d="M121.034 106.552H116.207V111.379H121.034V106.552Z" fill="black" fill-opacity="0.88"/>
<path d="M125.862 106.552H121.034V111.379H125.862V106.552Z" fill="black" fill-opacity="0.88"/>
<path d="M130.69 106.552H125.862V111.379H130.69V106.552Z" fill="black" fill-opacity="0.88"/>
<path d="M135.517 106.552H130.69V111.379H135.517V106.552Z" fill="black" fill-opacity="0.88"/>
<path d="M150 106.552H145.172V111.379H150V106.552Z" fill="black" fill-opacity="0.88"/>
<path d="M53.4482 111.379H48.6206V116.207H53.4482V111.379Z" fill="black" fill-opacity="0.88"/>
<path d="M58.2757 111.379H53.4482V116.207H58.2757V111.379Z" fill="black" fill-opacity="0.88"/>
<path d="M63.1033 111.379H58.2757V116.207H63.1033V111.379Z" fill="black" fill-opacity="0.88"/>
<path d="M87.2413 111.379H82.4137V116.207H87.2413V111.379Z" fill="black" fill-opacity="0.88"/>
<path d="M101.724 111.379H96.8964V116.207H101.724V111.379Z" fill="black" fill-opacity="0.88"/>
<path d="M106.552 111.379H101.724V116.207H106.552V111.379Z" fill="black" fill-opacity="0.88"/>
<path d="M111.379 111.379H106.552V116.207H111.379V111.379Z" fill="black" fill-opacity="0.88"/>
<path d="M130.69 111.379H125.862V116.207H130.69V111.379Z" fill="black" fill-opacity="0.88"/>
<path d="M135.517 111.379H130.69V116.207H135.517V111.379Z" fill="black" fill-opacity="0.88"/>
<path d="M140.345 111.379H135.517V116.207H140.345V111.379Z" fill="black" fill-opacity="0.88"/>
<path d="M14.8275 116.207H9.99988V121.035H14.8275V116.207Z" fill="black" fill-opacity="0.88"/>
<path d="M19.6551 116.207H14.8275V121.035H19.6551V116.207Z" fill="black" fill-opacity="0.88"/>
<path d="M24.4826 116.207H19.6551V121.035H24.4826V116.207Z" fill="black" fill-opacity="0.88"/>
<path d="M29.3102 116.207H24.4826V121.035H29.3102V116.207Z" fill="black" fill-opacity="0.88"/>
<path d="M34.1378 116.207H29.3102V121.035H34.1378V116.207Z" fill="black" fill-opacity="0.88"/>
<path d="M38.9654 116.207H34.1378V121.035H38.9654V116.207Z" fill="black" fill-opacity="0.88"/>
<path d="M43.793 116.207H38.9654V121.035H43.793V116.207Z" fill="black" fill-opacity="0.88"/>
<path d="M72.7585 116.207H67.9309V121.035H72.7585V116.207Z" fill="black" fill-opacity="0.88"/>
<path d="M77.5861 116.207H72.7585V121.035H77.5861V116.207Z" fill="black" fill-opacity="0.88"/>
<path d="M101.724 116.207H96.8964V121.035H101.724V116.207Z" fill="black" fill-opacity="0.88"/>
<path d="M106.552 116.207H101.724V121.035H106.552V116.207Z" fill="black" fill-opacity="0.88"/>
<path d="M111.379 116.207H106.552V121.035H111.379V116.207Z" fill="black" fill-opacity="0.88"/>
<path d="M121.034 116.207H116.207V121.035H121.034V116.207Z" fill="black" fill-opacity="0.88"/>
<path d="M130.69 116.207H125.862V121.035H130.69V116.207Z" fill="black" fill-opacity="0.88"/>
<path d="M150 116.207H145.172V121.035H150V116.207Z" fill="black" fill-opacity="0.88"/>
<path d="M14.8275 121.035H9.99988V125.862H14.8275V121.035Z" fill="black" fill-opacity="0.88"/>
<path d="M43.793 121.035H38.9654V125.862H43.793V121.035Z" fill="black" fill-opacity="0.88"/>
<path d="M58.2757 121.035H53.4482V125.862H58.2757V121.035Z" fill="black" fill-opacity="0.88"/>
<path d="M63.1033 121.035H58.2757V125.862H63.1033V121.035Z" fill="black" fill-opacity="0.88"/>
<path d="M72.7585 121.035H67.9309V125.862H72.7585V121.035Z" fill="black" fill-opacity="0.88"/>
<path d="M82.4137 121.035H77.5861V125.862H82.4137V121.035Z" fill="black" fill-opacity="0.88"/>
<path d="M87.2413 121.035H82.4137V125.862H87.2413V121.035Z" fill="black" fill-opacity="0.88"/>
<path d="M106.552 121.035H101.724V125.862H106.552V121.035Z" fill="black" fill-opacity="0.88"/>
<path d="M111.379 121.035H106.552V125.862H111.379V121.035Z" fill="black" fill-opacity="0.88"/>
<path d="M130.69 121.035H125.862V125.862H130.69V121.035Z" fill="black" fill-opacity="0.88"/>
<path d="M135.517 121.035H130.69V125.862H135.517V121.035Z" fill="black" fill-opacity="0.88"/>
<path d="M140.345 121.035H135.517V125.862H140.345V121.035Z" fill="black" fill-opacity="0.88"/>
<path d="M145.172 121.035H140.345V125.862H145.172V121.035Z" fill="black" fill-opacity="0.88"/>
<path d="M14.8275 125.862H9.99988V130.69H14.8275V125.862Z" fill="black" fill-opacity="0.88"/>
<path d="M24.4826 125.862H19.6551V130.69H24.4826V125.862Z" fill="black" fill-opacity="0.88"/>
<path d="M29.3102 125.862H24.4826V130.69H29.3102V125.862Z" fill="black" fill-opacity="0.88"/>
<path d="M34.1378 125.862H29.3102V130.69H34.1378V125.862Z" fill="black" fill-opacity="0.88"/>
<path d="M43.793 125.862H38.9654V130.69H43.793V125.862Z" fill="black" fill-opacity="0.88"/>
<path d="M53.4482 125.862H48.6206V130.69H53.4482V125.862Z" fill="black" fill-opacity="0.88"/>
<path d="M58.2757 125.862H53.4482V130.69H58.2757V125.862Z" fill="black" fill-opacity="0.88"/>
<path d="M77.5861 125.862H72.7585V130.69H77.5861V125.862Z" fill="black" fill-opacity="0.88"/>
<path d="M87.2413 125.862H82.4137V130.69H87.2413V125.862Z" fill="black" fill-opacity="0.88"/>
<path d="M96.8964 125.862H92.0688V130.69H96.8964V125.862Z" fill="black" fill-opacity="0.88"/>
<path d="M106.552 125.862H101.724V130.69H106.552V125.862Z" fill="black" fill-opacity="0.88"/>
<path d="M111.379 125.862H106.552V130.69H111.379V125.862Z" fill="black" fill-opacity="0.88"/>
<path d="M116.207 125.862H111.379V130.69H116.207V125.862Z" fill="black" fill-opacity="0.88"/>
<path d="M121.034 125.862H116.207V130.69H121.034V125.862Z" fill="black" fill-opacity="0.88"/>
<path d="M125.862 125.862H121.034V130.69H125.862V125.862Z" fill="black" fill-opacity="0.88"/>
<path d="M130.69 125.862H125.862V130.69H130.69V125.862Z" fill="black" fill-opacity="0.88"/>
<path d="M140.345 125.862H135.517V130.69H140.345V125.862Z" fill="black" fill-opacity="0.88"/>
<path d="M150 125.862H145.172V130.69H150V125.862Z" fill="black" fill-opacity="0.88"/>
<path d="M14.8275 130.69H9.99988V135.517H14.8275V130.69Z" fill="black" fill-opacity="0.88"/>
<path d="M24.4826 130.69H19.6551V135.517H24.4826V130.69Z" fill="black" fill-opacity="0.88"/>
<path d="M29.3102 130.69H24.4826V135.517H29.3102V130.69Z" fill="black" fill-opacity="0.88"/>
<path d="M34.1378 130.69H29.3102V135.517H34.1378V130.69Z" fill="black" fill-opacity="0.88"/>
<path d="M43.793 130.69H38.9654V135.517H43.793V130.69Z" fill="black" fill-opacity="0.88"/>
<path d="M67.9309 130.69H63.1033V135.517H67.9309V130.69Z" fill="black" fill-opacity="0.88"/>
<path d="M77.5861 130.69H72.7585V135.517H77.5861V130.69Z" fill="black" fill-opacity="0.88"/>
<path d="M92.0688 130.69H87.2413V135.517H92.0688V130.69Z" fill="black" fill-opacity="0.88"/>
<path d="M101.724 130.69H96.8964V135.517H101.724V130.69Z" fill="black" fill-opacity="0.88"/>
<path d="M106.552 130.69H101.724V135.517H106.552V130.69Z" fill="black" fill-opacity="0.88"/>
<path d="M111.379 130.69H106.552V135.517H111.379V130.69Z" fill="black" fill-opacity="0.88"/>
<path d="M116.207 130.69H111.379V135.517H116.207V130.69Z" fill="black" fill-opacity="0.88"/>
<path d="M121.034 130.69H116.207V135.517H121.034V130.69Z" fill="black" fill-opacity="0.88"/>
<path d="M130.69 130.69H125.862V135.517H130.69V130.69Z" fill="black" fill-opacity="0.88"/>
<path d="M145.172 130.69H140.345V135.517H145.172V130.69Z" fill="black" fill-opacity="0.88"/>
<path d="M150 130.69H145.172V135.517H150V130.69Z" fill="black" fill-opacity="0.88"/>
<path d="M14.8275 135.517H9.99988V140.345H14.8275V135.517Z" fill="black" fill-opacity="0.88"/>
<path d="M24.4826 135.517H19.6551V140.345H24.4826V135.517Z" fill="black" fill-opacity="0.88"/>
<path d="M29.3102 135.517H24.4826V140.345H29.3102V135.517Z" fill="black" fill-opacity="0.88"/>
<path d="M34.1378 135.517H29.3102V140.345H34.1378V135.517Z" fill="black" fill-opacity="0.88"/>
<path d="M43.793 135.517H38.9654V140.345H43.793V135.517Z" fill="black" fill-opacity="0.88"/>
<path d="M53.4482 135.517H48.6206V140.345H53.4482V135.517Z" fill="black" fill-opacity="0.88"/>
<path d="M58.2757 135.517H53.4482V140.345H58.2757V135.517Z" fill="black" fill-opacity="0.88"/>
<path d="M63.1033 135.517H58.2757V140.345H63.1033V135.517Z" fill="black" fill-opacity="0.88"/>
<path d="M77.5861 135.517H72.7585V140.345H77.5861V135.517Z" fill="black" fill-opacity="0.88"/>
<path d="M82.4137 135.517H77.5861V140.345H82.4137V135.517Z" fill="black" fill-opacity="0.88"/>
<path d="M87.2413 135.517H82.4137V140.345H87.2413V135.517Z" fill="black" fill-opacity="0.88"/>
<path d="M96.8964 135.517H92.0688V140.345H96.8964V135.517Z" fill="black" fill-opacity="0.88"/>
<path d="M106.552 135.517H101.724V140.345H106.552V135.517Z" fill="black" fill-opacity="0.88"/>
<path d="M111.379 135.517H106.552V140.345H111.379V135.517Z" fill="black" fill-opacity="0.88"/>
<path d="M140.345 135.517H135.517V140.345H140.345V135.517Z" fill="black" fill-opacity="0.88"/>
<path d="M145.172 135.517H140.345V140.345H145.172V135.517Z" fill="black" fill-opacity="0.88"/>
<path d="M14.8275 140.345H9.99988V145.172H14.8275V140.345Z" fill="black" fill-opacity="0.88"/>
<path d="M43.793 140.345H38.9654V145.172H43.793V140.345Z" fill="black" fill-opacity="0.88"/>
<path d="M53.4482 140.345H48.6206V145.172H53.4482V140.345Z" fill="black" fill-opacity="0.88"/>
<path d="M58.2757 140.345H53.4482V145.172H58.2757V140.345Z" fill="black" fill-opacity="0.88"/>
<path d="M77.5861 140.345H72.7585V145.172H77.5861V140.345Z" fill="black" fill-opacity="0.88"/>
<path d="M96.8964 140.345H92.0688V145.172H96.8964V140.345Z" fill="black" fill-opacity="0.88"/>
<path d="M111.379 140.345H106.552V145.172H111.379V140.345Z" fill="black" fill-opacity="0.88"/>
<path d="M135.517 140.345H130.69V145.172H135.517V140.345Z" fill="black" fill-opacity="0.88"/>
<path d="M140.345 140.345H135.517V145.172H140.345V140.345Z" fill="black" fill-opacity="0.88"/>
<path d="M14.8275 145.172H9.99988V150H14.8275V145.172Z" fill="black" fill-opacity="0.88"/>
<path d="M19.6551 145.172H14.8275V150H19.6551V145.172Z" fill="black" fill-opacity="0.88"/>
<path d="M24.4826 145.172H19.6551V150H24.4826V145.172Z" fill="black" fill-opacity="0.88"/>
<path d="M29.3102 145.172H24.4826V150H29.3102V145.172Z" fill="black" fill-opacity="0.88"/>
<path d="M34.1378 145.172H29.3102V150H34.1378V145.172Z" fill="black" fill-opacity="0.88"/>
<path d="M38.9654 145.172H34.1378V150H38.9654V145.172Z" fill="black" fill-opacity="0.88"/>
<path d="M43.793 145.172H38.9654V150H43.793V145.172Z" fill="black" fill-opacity="0.88"/>
<path d="M53.4482 145.172H48.6206V150H53.4482V145.172Z" fill="black" fill-opacity="0.88"/>
<path d="M67.9309 145.172H63.1033V150H67.9309V145.172Z" fill="black" fill-opacity="0.88"/>
<path d="M72.7585 145.172H67.9309V150H72.7585V145.172Z" fill="black" fill-opacity="0.88"/>
<path d="M77.5861 145.172H72.7585V150H77.5861V145.172Z" fill="black" fill-opacity="0.88"/>
<path d="M82.4137 145.172H77.5861V150H82.4137V145.172Z" fill="black" fill-opacity="0.88"/>
<path d="M87.2413 145.172H82.4137V150H87.2413V145.172Z" fill="black" fill-opacity="0.88"/>
<path d="M101.724 145.172H96.8964V150H101.724V145.172Z" fill="black" fill-opacity="0.88"/>
<path d="M140.345 145.172H135.517V150H140.345V145.172Z" fill="black" fill-opacity="0.88"/>
<path d="M145.172 145.172H140.345V150H145.172V145.172Z" fill="black" fill-opacity="0.88"/>
</g>
<defs>
<clipPath id="clip0_1_930">
<rect width="160" height="160" fill="white"/>
</clipPath>
</defs>
</svg>
