<svg width="17" height="18" viewBox="0 0 17 18" fill="none" xmlns="http://www.w3.org/2000/svg">
<path d="M14.3953 8.96203C14.3965 9.16094 14.3186 9.35218 14.1788 9.49368C14.039 9.63519 13.8488 9.71536 13.6499 9.71657L8.89994 9.74543L8.9288 14.4953C8.93001 14.6943 8.85215 14.8855 8.71236 15.027C8.57256 15.1685 8.38228 15.2487 8.18337 15.2499C7.98446 15.2511 7.79322 15.1732 7.65172 15.0334C7.51021 14.8936 7.43004 14.7034 7.42883 14.5045L7.39997 9.75454L2.65006 9.7834C2.45115 9.78461 2.25991 9.70675 2.1184 9.56696C1.9769 9.42716 1.89672 9.23688 1.89552 9.03797C1.89431 8.83906 1.97216 8.64782 2.11196 8.50632C2.25175 8.36481 2.44204 8.28464 2.64094 8.28343L7.39086 8.25457L7.362 3.50466C7.36079 3.30575 7.43865 3.11451 7.57844 2.973C7.71824 2.8315 7.90852 2.75132 8.10743 2.75011C8.30634 2.74891 8.49758 2.82676 8.63908 2.96656C8.78059 3.10635 8.86076 3.29664 8.86197 3.49554L8.89083 8.24546L13.6407 8.2166C13.8397 8.21539 14.0309 8.29325 14.1724 8.43304C14.3139 8.57284 14.3941 8.76312 14.3953 8.96203Z" fill="#A855F7"/>
</svg>
